<mxfile host="app.diagrams.net" agent="Mozilla/5.0 (Macintosh; Intel Mac OS X 10_15_7) AppleWebKit/537.36 (KHTML, like Gecko) Chrome/129.0.0.0 Safari/537.36" version="24.7.6">
  <diagram name="Page-1" id="1oxovvhrkwaGEaMZ6Zkm">
    <mxGraphModel dx="1949" dy="1912" grid="1" gridSize="10" guides="1" tooltips="1" connect="1" arrows="1" fold="1" page="1" pageScale="1" pageWidth="827" pageHeight="1169" math="0" shadow="0">
      <root>
        <mxCell id="0" />
        <mxCell id="1" parent="0" />
        <mxCell id="l6DddevNV_OksBh4ngpC-37" value="" style="rounded=0;whiteSpace=wrap;html=1;strokeWidth=3;" vertex="1" parent="1">
          <mxGeometry x="-3" width="830" height="670" as="geometry" />
        </mxCell>
        <mxCell id="XCQ5zsaXB3w69v--F8P7-7" value="Experimentation" style="swimlane;whiteSpace=wrap;html=1;fillColor=#f5f5f5;fontColor=#333333;strokeColor=#666666;" parent="1" vertex="1">
          <mxGeometry x="497" y="413" width="304" height="80" as="geometry" />
        </mxCell>
        <mxCell id="BoOxfsQ376VUfxmOBauW-3" value="Define scripts to execute experiments using datasets&lt;br&gt;Store parameters and results in projit Meta-data store" style="text;html=1;align=center;verticalAlign=middle;resizable=0;points=[];autosize=1;strokeColor=none;fillColor=none;" parent="XCQ5zsaXB3w69v--F8P7-7" vertex="1">
          <mxGeometry x="-6" y="30" width="310" height="40" as="geometry" />
        </mxCell>
        <mxCell id="l6DddevNV_OksBh4ngpC-4" value="" style="shape=singleArrow;direction=south;whiteSpace=wrap;html=1;fillColor=#e1d5e7;strokeColor=#9673a6;arrowWidth=0.38333333333333336;arrowSize=0.35555555555555557;" vertex="1" parent="1">
          <mxGeometry x="587" y="365" width="120" height="45" as="geometry" />
        </mxCell>
        <mxCell id="l6DddevNV_OksBh4ngpC-17" value="" style="shape=flexArrow;endArrow=classic;html=1;rounded=0;fillColor=#60a917;fillStyle=solid;strokeColor=#2D7600;entryX=0.069;entryY=0.026;entryDx=0;entryDy=0;entryPerimeter=0;" edge="1" parent="1" target="XCQ5zsaXB3w69v--F8P7-7">
          <mxGeometry width="50" height="50" relative="1" as="geometry">
            <mxPoint x="517" y="227" as="sourcePoint" />
            <mxPoint x="517" y="407" as="targetPoint" />
          </mxGeometry>
        </mxCell>
        <mxCell id="l6DddevNV_OksBh4ngpC-8" value="" style="shape=singleArrow;direction=south;whiteSpace=wrap;html=1;fillColor=#e1d5e7;strokeColor=#9673a6;" vertex="1" parent="1">
          <mxGeometry x="587" y="120" width="120" height="160" as="geometry" />
        </mxCell>
        <mxCell id="XCQ5zsaXB3w69v--F8P7-1" value="Data Sources" style="shape=datastore;whiteSpace=wrap;html=1;fillColor=#ffe6cc;strokeColor=#d79b00;" parent="1" vertex="1">
          <mxGeometry x="678" y="140" width="120" height="90" as="geometry" />
        </mxCell>
        <mxCell id="XCQ5zsaXB3w69v--F8P7-2" value="Data Preparation" style="swimlane;whiteSpace=wrap;html=1;fillColor=#f5f5f5;fontColor=#333333;strokeColor=#666666;" parent="1" vertex="1">
          <mxGeometry x="497" y="284" width="301" height="90" as="geometry" />
        </mxCell>
        <mxCell id="l6DddevNV_OksBh4ngpC-27" value="&lt;div style=&quot;text-wrap: nowrap;&quot;&gt;&lt;span style=&quot;background-color: initial;&quot;&gt;Define scripts to extract and process data&lt;/span&gt;&lt;br&gt;&lt;/div&gt;&lt;span style=&quot;text-wrap: nowrap;&quot;&gt;Record all project data in the projit meta-data store&lt;/span&gt;" style="rounded=0;whiteSpace=wrap;html=1;" vertex="1" parent="XCQ5zsaXB3w69v--F8P7-2">
          <mxGeometry x="0.5" y="25" width="300" height="65" as="geometry" />
        </mxCell>
        <mxCell id="XCQ5zsaXB3w69v--F8P7-4" value="Projit Meta-data" style="shape=datastore;whiteSpace=wrap;html=1;fillColor=#ffe6cc;strokeColor=#d79b00;" parent="1" vertex="1">
          <mxGeometry x="267" y="410" width="170" height="90" as="geometry" />
        </mxCell>
        <mxCell id="XCQ5zsaXB3w69v--F8P7-5" value="Processed Data" style="shape=datastore;whiteSpace=wrap;html=1;fillColor=#ffe6cc;strokeColor=#d79b00;" parent="1" vertex="1">
          <mxGeometry x="497" y="140" width="120" height="90" as="geometry" />
        </mxCell>
        <mxCell id="XCQ5zsaXB3w69v--F8P7-14" value="Meta-Analysis" style="swimlane;whiteSpace=wrap;html=1;fillColor=#f5f5f5;fontColor=#333333;strokeColor=#666666;" parent="1" vertex="1">
          <mxGeometry x="17" y="294" width="290" height="80" as="geometry" />
        </mxCell>
        <mxCell id="BoOxfsQ376VUfxmOBauW-11" value="Metadata in open repositories can be compiled&lt;br&gt;Multiple projects can be compared and analysed" style="text;html=1;align=center;verticalAlign=middle;resizable=0;points=[];autosize=1;strokeColor=none;fillColor=none;" parent="XCQ5zsaXB3w69v--F8P7-14" vertex="1">
          <mxGeometry y="30" width="280" height="40" as="geometry" />
        </mxCell>
        <mxCell id="BoOxfsQ376VUfxmOBauW-6" value="Tagging of Assets" style="swimlane;whiteSpace=wrap;html=1;fillColor=#f5f5f5;fontColor=#333333;strokeColor=#666666;" parent="1" vertex="1">
          <mxGeometry x="17" y="400" width="180" height="80" as="geometry" />
        </mxCell>
        <mxCell id="BoOxfsQ376VUfxmOBauW-8" value="Apply custom tags across all&amp;nbsp;&lt;div&gt;project assets. Utilise domain&amp;nbsp;&lt;/div&gt;&lt;div&gt;specific ontologies&lt;/div&gt;" style="text;html=1;align=center;verticalAlign=middle;resizable=0;points=[];autosize=1;strokeColor=none;fillColor=none;" parent="BoOxfsQ376VUfxmOBauW-6" vertex="1">
          <mxGeometry y="20" width="180" height="60" as="geometry" />
        </mxCell>
        <mxCell id="BoOxfsQ376VUfxmOBauW-9" value="Other Project Meta-data" style="shape=datastore;whiteSpace=wrap;html=1;fillColor=#ffe6cc;strokeColor=#d79b00;" parent="1" vertex="1">
          <mxGeometry x="17" y="187" width="180" height="80" as="geometry" />
        </mxCell>
        <mxCell id="l6DddevNV_OksBh4ngpC-2" value="" style="group" vertex="1" connectable="0" parent="1">
          <mxGeometry x="492" y="541" width="310" height="80" as="geometry" />
        </mxCell>
        <mxCell id="XCQ5zsaXB3w69v--F8P7-8" value="Analysis of Results" style="swimlane;whiteSpace=wrap;html=1;fillColor=#f5f5f5;fontColor=#333333;strokeColor=#666666;" parent="l6DddevNV_OksBh4ngpC-2" vertex="1">
          <mxGeometry x="6" width="300" height="80" as="geometry" />
        </mxCell>
        <mxCell id="BoOxfsQ376VUfxmOBauW-5" value="Extract results from across experiments and datasets&lt;br&gt;Analyse independently and after the fact" style="text;html=1;align=center;verticalAlign=middle;resizable=0;points=[];autosize=1;strokeColor=none;fillColor=none;" parent="l6DddevNV_OksBh4ngpC-2" vertex="1">
          <mxGeometry y="33" width="310" height="40" as="geometry" />
        </mxCell>
        <mxCell id="XCQ5zsaXB3w69v--F8P7-10" value="" style="shape=flexArrow;endArrow=classic;html=1;rounded=0;fillColor=#60a917;fillStyle=solid;strokeColor=#2D7600;" parent="1" edge="1">
          <mxGeometry width="50" height="50" relative="1" as="geometry">
            <mxPoint x="726.5" y="230" as="sourcePoint" />
            <mxPoint x="727" y="290" as="targetPoint" />
          </mxGeometry>
        </mxCell>
        <mxCell id="XCQ5zsaXB3w69v--F8P7-11" value="" style="shape=flexArrow;endArrow=classic;html=1;rounded=0;fillColor=#60a917;fillStyle=solid;strokeColor=#2D7600;" parent="1" edge="1">
          <mxGeometry width="50" height="50" relative="1" as="geometry">
            <mxPoint x="552" y="290" as="sourcePoint" />
            <mxPoint x="551.5" y="230" as="targetPoint" />
          </mxGeometry>
        </mxCell>
        <mxCell id="l6DddevNV_OksBh4ngpC-5" value="" style="shape=singleArrow;direction=south;whiteSpace=wrap;html=1;fillColor=#e1d5e7;strokeColor=#9673a6;arrowWidth=0.43333333333333335;arrowSize=0.4;" vertex="1" parent="1">
          <mxGeometry x="587" y="493" width="120" height="45" as="geometry" />
        </mxCell>
        <mxCell id="l6DddevNV_OksBh4ngpC-6" value="Project Scoping" style="swimlane;whiteSpace=wrap;html=1;fillColor=#f5f5f5;fontColor=#333333;strokeColor=#666666;" vertex="1" parent="1">
          <mxGeometry x="497" y="40" width="301" height="80" as="geometry" />
        </mxCell>
        <mxCell id="l6DddevNV_OksBh4ngpC-7" value="Discussion and investigation to understand&amp;nbsp;&lt;div&gt;project goals and available data sets.&lt;/div&gt;" style="text;html=1;align=center;verticalAlign=middle;resizable=0;points=[];autosize=1;strokeColor=none;fillColor=none;" vertex="1" parent="l6DddevNV_OksBh4ngpC-6">
          <mxGeometry x="15" y="30" width="250" height="40" as="geometry" />
        </mxCell>
        <mxCell id="l6DddevNV_OksBh4ngpC-9" value="" style="group" vertex="1" connectable="0" parent="1">
          <mxGeometry x="127" y="570" width="310" height="80" as="geometry" />
        </mxCell>
        <mxCell id="l6DddevNV_OksBh4ngpC-10" value="Reporting &amp;amp; Presentation" style="swimlane;whiteSpace=wrap;html=1;fillColor=#f5f5f5;fontColor=#333333;strokeColor=#666666;" vertex="1" parent="l6DddevNV_OksBh4ngpC-9">
          <mxGeometry x="6" width="300" height="80" as="geometry" />
        </mxCell>
        <mxCell id="l6DddevNV_OksBh4ngpC-11" value="Tabulate &amp;amp; plot results for presentation" style="text;html=1;align=center;verticalAlign=middle;resizable=0;points=[];autosize=1;strokeColor=none;fillColor=none;" vertex="1" parent="l6DddevNV_OksBh4ngpC-9">
          <mxGeometry x="40" y="38" width="230" height="30" as="geometry" />
        </mxCell>
        <mxCell id="l6DddevNV_OksBh4ngpC-12" value="" style="shape=singleArrow;direction=west;whiteSpace=wrap;html=1;fillColor=#e1d5e7;strokeColor=#9673a6;arrowWidth=0.4;arrowSize=0.45;" vertex="1" parent="1">
          <mxGeometry x="437" y="570" width="60" height="60" as="geometry" />
        </mxCell>
        <mxCell id="l6DddevNV_OksBh4ngpC-21" value="" style="endArrow=classic;startArrow=classic;html=1;rounded=0;entryX=0;entryY=0.5;entryDx=0;entryDy=0;fillColor=#dae8fc;strokeColor=#6c8ebf;strokeWidth=3;" edge="1" parent="1" source="XCQ5zsaXB3w69v--F8P7-4" target="XCQ5zsaXB3w69v--F8P7-2">
          <mxGeometry width="50" height="50" relative="1" as="geometry">
            <mxPoint x="387" y="240" as="sourcePoint" />
            <mxPoint x="437" y="190" as="targetPoint" />
          </mxGeometry>
        </mxCell>
        <mxCell id="l6DddevNV_OksBh4ngpC-22" value="" style="endArrow=classic;startArrow=classic;html=1;rounded=0;fillColor=#dae8fc;strokeColor=#6c8ebf;strokeWidth=3;exitX=1.006;exitY=0.578;exitDx=0;exitDy=0;exitPerimeter=0;" edge="1" parent="1" source="XCQ5zsaXB3w69v--F8P7-4">
          <mxGeometry width="50" height="50" relative="1" as="geometry">
            <mxPoint x="411" y="507" as="sourcePoint" />
            <mxPoint x="498" y="440" as="targetPoint" />
          </mxGeometry>
        </mxCell>
        <mxCell id="l6DddevNV_OksBh4ngpC-23" value="" style="endArrow=classic;startArrow=classic;html=1;rounded=0;entryX=0;entryY=0.25;entryDx=0;entryDy=0;fillColor=#dae8fc;strokeColor=#6c8ebf;strokeWidth=3;exitX=0.85;exitY=0.95;exitDx=0;exitDy=0;exitPerimeter=0;" edge="1" parent="1" source="XCQ5zsaXB3w69v--F8P7-4" target="XCQ5zsaXB3w69v--F8P7-8">
          <mxGeometry width="50" height="50" relative="1" as="geometry">
            <mxPoint x="387" y="538" as="sourcePoint" />
            <mxPoint x="474" y="471" as="targetPoint" />
          </mxGeometry>
        </mxCell>
        <mxCell id="l6DddevNV_OksBh4ngpC-24" value="" style="endArrow=classic;startArrow=classic;html=1;rounded=0;entryX=0.541;entryY=1.022;entryDx=0;entryDy=0;fillColor=#dae8fc;strokeColor=#6c8ebf;strokeWidth=3;entryPerimeter=0;exitX=0.75;exitY=0;exitDx=0;exitDy=0;" edge="1" parent="1" source="l6DddevNV_OksBh4ngpC-10" target="XCQ5zsaXB3w69v--F8P7-4">
          <mxGeometry width="50" height="50" relative="1" as="geometry">
            <mxPoint x="287" y="557" as="sourcePoint" />
            <mxPoint x="374" y="490" as="targetPoint" />
          </mxGeometry>
        </mxCell>
        <mxCell id="l6DddevNV_OksBh4ngpC-25" value="" style="endArrow=classic;startArrow=classic;html=1;rounded=0;entryX=-0.018;entryY=0.589;entryDx=0;entryDy=0;fillColor=#dae8fc;strokeColor=#6c8ebf;strokeWidth=3;entryPerimeter=0;exitX=1.01;exitY=0.621;exitDx=0;exitDy=0;exitPerimeter=0;" edge="1" parent="1" source="BoOxfsQ376VUfxmOBauW-8" target="XCQ5zsaXB3w69v--F8P7-4">
          <mxGeometry width="50" height="50" relative="1" as="geometry">
            <mxPoint x="237" y="528" as="sourcePoint" />
            <mxPoint x="238" y="440" as="targetPoint" />
          </mxGeometry>
        </mxCell>
        <mxCell id="l6DddevNV_OksBh4ngpC-26" value="" style="endArrow=classic;startArrow=classic;html=1;rounded=0;entryX=0.15;entryY=0.05;entryDx=0;entryDy=0;fillColor=#dae8fc;strokeColor=#6c8ebf;strokeWidth=3;entryPerimeter=0;" edge="1" parent="1" target="XCQ5zsaXB3w69v--F8P7-4">
          <mxGeometry width="50" height="50" relative="1" as="geometry">
            <mxPoint x="257" y="374" as="sourcePoint" />
            <mxPoint x="274" y="386" as="targetPoint" />
          </mxGeometry>
        </mxCell>
        <mxCell id="BoOxfsQ376VUfxmOBauW-1" value="&lt;div&gt;&lt;/div&gt;" style="text;html=1;align=center;verticalAlign=middle;resizable=0;points=[];autosize=1;fillColor=default;" parent="1" vertex="1">
          <mxGeometry x="460" y="175" width="20" height="10" as="geometry" />
        </mxCell>
        <mxCell id="l6DddevNV_OksBh4ngpC-32" value="" style="endArrow=classic;startArrow=classic;html=1;rounded=0;fillColor=#dae8fc;strokeColor=#6c8ebf;strokeWidth=3;exitX=1.01;exitY=0.636;exitDx=0;exitDy=0;exitPerimeter=0;" edge="1" parent="1" source="BoOxfsQ376VUfxmOBauW-9">
          <mxGeometry width="50" height="50" relative="1" as="geometry">
            <mxPoint x="267" y="250" as="sourcePoint" />
            <mxPoint x="237" y="290" as="targetPoint" />
          </mxGeometry>
        </mxCell>
        <mxCell id="l6DddevNV_OksBh4ngpC-34" value="" style="group" vertex="1" connectable="0" parent="1">
          <mxGeometry x="17" y="20" width="320" height="130" as="geometry" />
        </mxCell>
        <mxCell id="l6DddevNV_OksBh4ngpC-13" value="&lt;b&gt;&amp;nbsp; Legend&lt;/b&gt;&lt;div&gt;&lt;br&gt;&lt;/div&gt;&lt;div&gt;&amp;nbsp; &amp;nbsp; &amp;nbsp; &amp;nbsp; &amp;nbsp; &amp;nbsp; Flow of time&amp;nbsp; &amp;nbsp; &amp;nbsp; &amp;nbsp; &amp;nbsp; &amp;nbsp; &amp;nbsp; &amp;nbsp; &amp;nbsp; &amp;nbsp; &amp;nbsp; &amp;nbsp; &amp;nbsp; &amp;nbsp; &amp;nbsp; &amp;nbsp; &amp;nbsp;Project Step&lt;/div&gt;&lt;div&gt;&lt;br&gt;&lt;/div&gt;&lt;div&gt;&amp;nbsp; &amp;nbsp; &amp;nbsp; &amp;nbsp; &amp;nbsp; &amp;nbsp; Flow of project data&amp;nbsp; &amp;nbsp; &amp;nbsp; &amp;nbsp; &amp;nbsp; &amp;nbsp; &amp;nbsp; &amp;nbsp; &amp;nbsp; &amp;nbsp; &amp;nbsp;Data Store&lt;/div&gt;&lt;div&gt;&lt;br&gt;&lt;/div&gt;&lt;div&gt;&amp;nbsp; &amp;nbsp; &amp;nbsp; &amp;nbsp; &amp;nbsp; &amp;nbsp; Flow of meta-data&lt;/div&gt;&lt;div&gt;&lt;br&gt;&lt;/div&gt;" style="rounded=0;whiteSpace=wrap;html=1;align=left;" vertex="1" parent="l6DddevNV_OksBh4ngpC-34">
          <mxGeometry width="320" height="130" as="geometry" />
        </mxCell>
        <mxCell id="l6DddevNV_OksBh4ngpC-14" value="" style="shape=singleArrow;whiteSpace=wrap;html=1;fillColor=#e1d5e7;strokeColor=#9673a6;arrowWidth=0.4666666666666667;arrowSize=0.55;" vertex="1" parent="l6DddevNV_OksBh4ngpC-34">
          <mxGeometry x="11" y="33" width="20" height="20" as="geometry" />
        </mxCell>
        <mxCell id="l6DddevNV_OksBh4ngpC-16" value="" style="shape=singleArrow;whiteSpace=wrap;html=1;fillColor=#60a917;strokeColor=#2D7600;arrowWidth=0.4666666666666667;arrowSize=0.55;fontColor=#ffffff;" vertex="1" parent="l6DddevNV_OksBh4ngpC-34">
          <mxGeometry x="12" y="60" width="20" height="20" as="geometry" />
        </mxCell>
        <mxCell id="l6DddevNV_OksBh4ngpC-28" value="" style="endArrow=classic;startArrow=none;html=1;rounded=0;entryX=-0.018;entryY=0.589;entryDx=0;entryDy=0;fillColor=#dae8fc;strokeColor=#6c8ebf;strokeWidth=3;entryPerimeter=0;startFill=0;" edge="1" parent="l6DddevNV_OksBh4ngpC-34">
          <mxGeometry width="50" height="50" relative="1" as="geometry">
            <mxPoint x="10" y="100" as="sourcePoint" />
            <mxPoint x="32" y="100" as="targetPoint" />
          </mxGeometry>
        </mxCell>
        <mxCell id="l6DddevNV_OksBh4ngpC-29" value="" style="shape=datastore;whiteSpace=wrap;html=1;fillColor=#ffe6cc;strokeColor=#d79b00;" vertex="1" parent="l6DddevNV_OksBh4ngpC-34">
          <mxGeometry x="165" y="60" width="40" height="20" as="geometry" />
        </mxCell>
        <mxCell id="l6DddevNV_OksBh4ngpC-36" value="" style="group" vertex="1" connectable="0" parent="l6DddevNV_OksBh4ngpC-34">
          <mxGeometry x="156" y="19" width="60" height="34" as="geometry" />
        </mxCell>
        <mxCell id="l6DddevNV_OksBh4ngpC-30" value="&lt;font style=&quot;font-weight: normal; font-size: 7px;&quot;&gt;Name&lt;/font&gt;" style="swimlane;whiteSpace=wrap;html=1;startSize=10;fillColor=#f5f5f5;fontColor=#333333;strokeColor=#666666;" vertex="1" parent="l6DddevNV_OksBh4ngpC-36">
          <mxGeometry x="9" width="40" height="30" as="geometry" />
        </mxCell>
        <mxCell id="l6DddevNV_OksBh4ngpC-35" value="&lt;font style=&quot;font-size: 6px;&quot;&gt;Description&amp;nbsp; &amp;nbsp;&lt;/font&gt;" style="text;html=1;align=center;verticalAlign=middle;resizable=0;points=[];autosize=1;strokeColor=none;fillColor=none;" vertex="1" parent="l6DddevNV_OksBh4ngpC-36">
          <mxGeometry y="4" width="60" height="30" as="geometry" />
        </mxCell>
      </root>
    </mxGraphModel>
  </diagram>
</mxfile>
